<mxfile host="app.diagrams.net" modified="2023-08-24T22:17:53.627Z" agent="Mozilla/5.0 (Windows NT 10.0; Win64; x64) AppleWebKit/537.36 (KHTML, like Gecko) Chrome/114.0.0.0 Safari/537.36 OPR/100.0.0.0" etag="btnFx0IRhoe7QGX9OPwJ" version="21.6.3" type="github">
  <diagram name="Página-1" id="AEyVApIA7w85Lbusa7Iw">
    <mxGraphModel dx="585" dy="700" grid="1" gridSize="10" guides="1" tooltips="1" connect="1" arrows="1" fold="1" page="1" pageScale="1" pageWidth="1920" pageHeight="1200" math="0" shadow="0">
      <root>
        <mxCell id="0" />
        <mxCell id="1" parent="0" />
        <mxCell id="Nax9rcWnp-f-cdcPO7so-1" value="DATOS" style="rounded=0;whiteSpace=wrap;html=1;fillColor=#76608a;fontColor=#ffffff;strokeColor=#432D57;fontStyle=1;fontSize=14;" vertex="1" parent="1">
          <mxGeometry x="250" y="470" width="60" height="30" as="geometry" />
        </mxCell>
        <mxCell id="Nax9rcWnp-f-cdcPO7so-2" value="ANALISIS DE DATOS" style="rounded=0;whiteSpace=wrap;html=1;fillColor=#76608a;fontColor=#ffffff;strokeColor=#432D57;fontStyle=1;fontSize=14;" vertex="1" parent="1">
          <mxGeometry x="410" y="465" width="100" height="40" as="geometry" />
        </mxCell>
        <mxCell id="Nax9rcWnp-f-cdcPO7so-3" value="INFORMACION" style="rounded=0;whiteSpace=wrap;html=1;fillColor=#76608a;fontColor=#ffffff;strokeColor=#432D57;fontStyle=1;fontSize=14;" vertex="1" parent="1">
          <mxGeometry x="610" y="470" width="120" height="30" as="geometry" />
        </mxCell>
        <mxCell id="Nax9rcWnp-f-cdcPO7so-4" value="SISTEMA" style="rounded=0;whiteSpace=wrap;html=1;fillColor=#76608a;fontColor=#ffffff;strokeColor=#432D57;fontStyle=1;fontSize=14;" vertex="1" parent="1">
          <mxGeometry x="560" y="270" width="100" height="30" as="geometry" />
        </mxCell>
        <mxCell id="Nax9rcWnp-f-cdcPO7so-5" value="SISTEMA DE INFORMACION" style="rounded=0;whiteSpace=wrap;html=1;fillColor=#76608a;fontColor=#ffffff;strokeColor=#432D57;fontStyle=1;fontSize=14;" vertex="1" parent="1">
          <mxGeometry x="790" y="310" width="110" height="40" as="geometry" />
        </mxCell>
        <mxCell id="Nax9rcWnp-f-cdcPO7so-6" value="BASE DE DATOS" style="rounded=0;whiteSpace=wrap;html=1;fillColor=#76608a;fontColor=#ffffff;strokeColor=#432D57;fontStyle=1;fontSize=14;" vertex="1" parent="1">
          <mxGeometry x="980" y="170" width="100" height="40" as="geometry" />
        </mxCell>
        <mxCell id="Nax9rcWnp-f-cdcPO7so-7" value="ESQUEMA" style="rounded=0;whiteSpace=wrap;html=1;fillColor=#76608a;fontColor=#ffffff;strokeColor=#432D57;fontStyle=1;fontSize=14;" vertex="1" parent="1">
          <mxGeometry x="1060" y="320" width="90" height="30" as="geometry" />
        </mxCell>
        <mxCell id="Nax9rcWnp-f-cdcPO7so-9" value="SGBD" style="rounded=0;whiteSpace=wrap;html=1;fillColor=#76608a;fontColor=#ffffff;strokeColor=#432D57;fontStyle=1;fontSize=14;" vertex="1" parent="1">
          <mxGeometry x="1320" y="100" width="70" height="30" as="geometry" />
        </mxCell>
        <mxCell id="Nax9rcWnp-f-cdcPO7so-10" value="INSTANCIA" style="rounded=0;whiteSpace=wrap;html=1;fillColor=#76608a;fontColor=#ffffff;strokeColor=#432D57;fontStyle=1;fontSize=14;" vertex="1" parent="1">
          <mxGeometry x="1190" y="200" width="90" height="30" as="geometry" />
        </mxCell>
        <mxCell id="Nax9rcWnp-f-cdcPO7so-11" value="ACID" style="rounded=0;whiteSpace=wrap;html=1;fillColor=#76608a;fontColor=#ffffff;strokeColor=#432D57;fontStyle=1;fontSize=14;" vertex="1" parent="1">
          <mxGeometry x="1380" y="190" width="60" height="30" as="geometry" />
        </mxCell>
        <mxCell id="Nax9rcWnp-f-cdcPO7so-13" value="&lt;div style=&quot;font-size: 13px;&quot;&gt;Hechos&lt;/div&gt;&lt;div style=&quot;font-size: 13px;&quot;&gt;recopilados no&lt;/div&gt;&lt;div style=&quot;font-size: 13px;&quot;&gt;procesados&lt;/div&gt;" style="rounded=1;whiteSpace=wrap;html=1;fillColor=#f5f5f5;strokeColor=#666666;fontColor=#333333;fontSize=13;" vertex="1" parent="1">
          <mxGeometry x="230" y="530" width="100" height="50" as="geometry" />
        </mxCell>
        <mxCell id="Nax9rcWnp-f-cdcPO7so-14" value="&lt;div style=&quot;font-size: 13px;&quot;&gt;Serie de técnicas para procesar datos&lt;/div&gt;" style="rounded=1;whiteSpace=wrap;html=1;fillColor=#f5f5f5;strokeColor=#666666;fontColor=#333333;fontSize=13;" vertex="1" parent="1">
          <mxGeometry x="400" y="530" width="130" height="50" as="geometry" />
        </mxCell>
        <mxCell id="Nax9rcWnp-f-cdcPO7so-15" value="&lt;div style=&quot;font-size: 13px;&quot;&gt;Datos procesados para toma de decisiones&lt;/div&gt;" style="rounded=1;whiteSpace=wrap;html=1;fillColor=#f5f5f5;strokeColor=#666666;fontColor=#333333;fontSize=13;" vertex="1" parent="1">
          <mxGeometry x="610" y="530" width="140" height="50" as="geometry" />
        </mxCell>
        <mxCell id="Nax9rcWnp-f-cdcPO7so-16" value="&lt;div style=&quot;font-size: 13px;&quot;&gt;&lt;div&gt;Serie de recursos para&lt;/div&gt;&lt;div&gt;manejar grandes&lt;/div&gt;&lt;div&gt;volúmenes de información&lt;/div&gt;&lt;/div&gt;" style="rounded=1;whiteSpace=wrap;html=1;fillColor=#f5f5f5;strokeColor=#666666;fontColor=#333333;fontSize=13;" vertex="1" parent="1">
          <mxGeometry x="530" y="320" width="160" height="70" as="geometry" />
        </mxCell>
        <mxCell id="Nax9rcWnp-f-cdcPO7so-17" value="&lt;div style=&quot;&quot;&gt;&lt;div style=&quot;&quot;&gt;Conjunto de recursos&lt;/div&gt;&lt;div style=&quot;&quot;&gt;para administrar y&lt;/div&gt;&lt;div style=&quot;&quot;&gt;distribuir datos de forma&lt;/div&gt;&lt;div style=&quot;&quot;&gt;organizada&lt;/div&gt;&lt;/div&gt;" style="rounded=1;whiteSpace=wrap;html=1;fillColor=#f5f5f5;strokeColor=#666666;fontColor=#333333;fontSize=13;" vertex="1" parent="1">
          <mxGeometry x="765" y="380" width="160" height="70" as="geometry" />
        </mxCell>
      </root>
    </mxGraphModel>
  </diagram>
</mxfile>
